<?xml version="1.0" encoding="UTF-8"?>
<svg width="32px" height="22px" viewBox="0 0 32 22" version="1.1" xmlns="http://www.w3.org/2000/svg" xmlns:xlink="http://www.w3.org/1999/xlink">
    <!-- Generator: Sketch 44.1 (41455) - http://www.bohemiancoding.com/sketch -->
    <title>Menu Icon</title>
    <desc>Created with Sketch.</desc>
    <defs></defs>
    <g id="Main" stroke="none" stroke-width="1" fill="none" fill-rule="evenodd">
        <g id="1920" transform="translate(-1478.000000, -45.000000)" fill="#FFFFFF">
            <path d="M1508,57.9419378 L1480,57.9419378 C1478.896,57.9419378 1478,57.0722395 1478,55.9993529 C1478,54.9277605 1478.896,54.0593564 1480,54.0593564 L1508,54.0593564 C1509.10533,54.0593564 1510,54.9277605 1510,55.9993529 C1510,57.0722395 1509.10533,57.9419378 1508,57.9419378 L1508,57.9419378 L1508,57.9419378 Z M1508,48.8825813 L1480,48.8825813 C1478.896,48.8825813 1478,48.0115889 1478,46.9412907 C1478,45.868404 1478.896,45 1480,45 L1508,45 C1509.10533,45 1510,45.868404 1510,46.9412907 C1510,48.0115889 1509.10533,48.8825813 1508,48.8825813 L1508,48.8825813 L1508,48.8825813 Z M1480,63.1174187 L1508,63.1174187 C1509.10533,63.1174187 1510,63.9871169 1510,65.0600035 C1510,66.131596 1509.10533,67 1508,67 L1480,67 C1478.896,67 1478,66.131596 1478,65.0600035 C1478,63.9871169 1478.896,63.1174187 1480,63.1174187 L1480,63.1174187 L1480,63.1174187 Z" id="Menu-Icon"></path>
        </g>
    </g>
</svg>