<?xml version="1.0" encoding="UTF-8"?>
<svg width="53px" height="71px" viewBox="0 0 53 71" version="1.1" xmlns="http://www.w3.org/2000/svg" xmlns:xlink="http://www.w3.org/1999/xlink">
    <!-- Generator: Sketch 44.1 (41455) - http://www.bohemiancoding.com/sketch -->
    <title>Fill 1</title>
    <desc>Created with Sketch.</desc>
    <defs></defs>
    <g id="Main" stroke="none" stroke-width="1" fill="none" fill-rule="evenodd">
        <g id="1920" transform="translate(-1407.000000, -3471.000000)" fill="#FFFFFF">
            <path d="M1424.92764,3540.37216 C1424.92764,3540.37216 1424.92764,3542.71054 1426.48656,3541.15162 C1428.04549,3539.59269 1434.28119,3529.45968 1434.28119,3529.45968 C1434.28119,3529.45968 1451.42936,3532.57753 1455.32667,3517.76775 C1456.8856,3512.31151 1460.00345,3513.09097 1460.00345,3513.09097 C1460.00345,3513.09097 1460.00345,3511.53205 1458.44452,3511.53205 C1457.66506,3510.75258 1454.54721,3507.63473 1449.09097,3513.09097 C1443.63473,3518.54721 1440.51688,3506.07581 1440.51688,3506.07581 C1440.51688,3506.07581 1438.1785,3499.06065 1441.29635,3492.82495 C1444.4142,3486.58925 1436.61957,3479.57409 1438.1785,3471 C1432.72226,3475.67677 1433.50172,3478.01516 1433.50172,3478.01516 C1433.50172,3478.01516 1430.38387,3479.57409 1431.16334,3485.80979 C1429.60441,3485.03032 1428.82495,3488.92764 1429.60441,3492.04549 C1428.04549,3492.04549 1428.04549,3499.84011 1428.82495,3500.61957 C1426.48656,3501.39904 1428.82495,3505.29635 1428.82495,3505.29635 C1428.82495,3505.29635 1412.45624,3496.72226 1409.33839,3487.36871 C1407.77946,3484.25086 1407,3488.92764 1407,3488.92764 L1409.33839,3493.60441 C1409.33839,3493.60441 1407,3493.60441 1410.89731,3499.06065 C1410.11785,3499.84011 1410.11785,3503.73742 1415.57409,3505.29635 C1413.2357,3506.07581 1416.35355,3509.19366 1419.4714,3510.75258 C1419.4714,3510.75258 1416.35355,3513.87043 1426.48656,3518.54721 C1422.58925,3521.66506 1431.16334,3524.00345 1431.16334,3524.00345 L1417.91247,3534.13646 C1417.91247,3534.13646 1416.35355,3536.47484 1418.69194,3536.47484 C1417.91247,3538.03377 1418.69194,3539.59269 1420.25086,3538.81323 C1420.25086,3540.37216 1422.58925,3541.15162 1423.36871,3539.59269 C1422.58925,3541.15162 1424.14817,3541.93108 1424.92764,3540.37216" id="Fill-1"></path>
        </g>
    </g>
</svg>