<?xml version="1.0" encoding="UTF-8"?>
<svg width="67px" height="89px" viewBox="0 0 67 89" version="1.1" xmlns="http://www.w3.org/2000/svg" xmlns:xlink="http://www.w3.org/1999/xlink">
    <!-- Generator: Sketch 44.1 (41455) - http://www.bohemiancoding.com/sketch -->
    <title>Fill 1 Copy</title>
    <desc>Created with Sketch.</desc>
    <defs></defs>
    <g id="Main" stroke="none" stroke-width="1" fill="none" fill-rule="evenodd">
        <g id="1920" transform="translate(-460.000000, -3336.000000)" fill="#FFFFFF">
            <path d="M482.484838,3423.00655 C482.484838,3423.00655 482.484838,3425.93935 484.440041,3423.98415 C486.395245,3422.02895 494.216058,3409.32012 494.216058,3409.32012 C494.216058,3409.32012 515.723294,3413.23053 520.611303,3394.6561 C522.566506,3387.81289 526.476912,3388.79049 526.476912,3388.79049 C526.476912,3388.79049 526.476912,3386.83529 524.521709,3386.83529 C523.544108,3385.85768 519.633701,3381.94728 512.790489,3388.79049 C505.947278,3395.6337 502.036871,3379.99207 502.036871,3379.99207 C502.036871,3379.99207 499.104066,3371.19366 503.014473,3363.37285 C506.924879,3355.55203 497.148863,3346.75362 499.104066,3336 C492.260855,3341.86561 493.238456,3344.79841 493.238456,3344.79841 C493.238456,3344.79841 489.32805,3346.75362 490.305651,3354.57443 C488.350448,3353.59683 487.372846,3358.48484 488.350448,3362.39524 C486.395245,3362.39524 486.395245,3372.17126 487.372846,3373.14886 C484.440041,3374.12646 487.372846,3379.01447 487.372846,3379.01447 C487.372846,3379.01447 466.843212,3368.26085 462.932805,3356.52963 C460.977602,3352.61923 460,3358.48484 460,3358.48484 L462.932805,3364.35045 C462.932805,3364.35045 460,3364.35045 464.888008,3371.19366 C463.910407,3372.17126 463.910407,3377.05927 470.753618,3379.01447 C467.820813,3379.99207 471.73122,3383.90248 475.641626,3385.85768 C475.641626,3385.85768 471.73122,3389.76809 484.440041,3395.6337 C479.552033,3399.54411 490.305651,3402.47691 490.305651,3402.47691 L473.686423,3415.18573 C473.686423,3415.18573 471.73122,3418.11854 474.664025,3418.11854 C473.686423,3420.07374 474.664025,3422.02895 476.619228,3421.05134 C476.619228,3423.00655 479.552033,3423.98415 480.529635,3422.02895 C479.552033,3423.98415 481.507236,3424.96175 482.484838,3423.00655" id="Fill-1-Copy" transform="translate(493.238456, 3380.328125) scale(-1, 1) translate(-493.238456, -3380.328125) "></path>
        </g>
    </g>
</svg>