<?xml version="1.0" encoding="utf-8"?>
<!-- Generator: Adobe Illustrator 21.0.0, SVG Export Plug-In . SVG Version: 6.00 Build 0)  -->
<svg version="1.1" id="Слой_1" xmlns="http://www.w3.org/2000/svg" xmlns:xlink="http://www.w3.org/1999/xlink" x="0px" y="0px"
	 viewBox="0 0 171 42" style="enable-background:new 0 0 171 42;" xml:space="preserve">
<style type="text/css">
	.st0{fill:url(#Oval-3_1_);}
	.st1{enable-background:new    ;}
	.st2{fill:#FFFFFF;}
</style>
<linearGradient id="Oval-3_1_" gradientUnits="userSpaceOnUse" x1="-585.5869" y1="396.5641" x2="-584.8403" y2="397.1989" gradientTransform="matrix(42 0 0 -42 24600 16690)">
	<stop  offset="0" style="stop-color:#CA3158"/>
	<stop  offset="1" style="stop-color:#FF9A48"/>
</linearGradient>
<circle id="Oval-3" class="st0" cx="21" cy="21" r="21"/>
<g class="st1">
	<path class="st2" d="M15.1,31V10.2h6.7c2.5,0,4.2,0.1,5,0.3c1.2,0.3,2.2,1,3,2s1.2,2.4,1.2,4c0,1.3-0.2,2.3-0.7,3.2s-1.1,1.6-1.8,2
		c-0.7,0.5-1.4,0.8-2.2,1c-1,0.2-2.4,0.3-4.3,0.3h-2.7V31H15.1z M19.3,13.8v5.9h2.3c1.7,0,2.8-0.1,3.3-0.3c0.6-0.2,1-0.6,1.3-1
		c0.3-0.5,0.5-1,0.5-1.6c0-0.8-0.2-1.4-0.7-1.9c-0.4-0.5-1-0.8-1.7-0.9c-0.5-0.1-1.5-0.1-3-0.1H19.3z"/>
</g>
<g class="st1">
	<path class="st2" d="M56.8,31V13.1h5.8c2.2,0,3.6,0.1,4.3,0.3c1,0.3,1.9,0.9,2.6,1.8c0.7,0.9,1,2.1,1,3.5c0,1.1-0.2,2-0.6,2.8
		c-0.4,0.7-0.9,1.3-1.5,1.8c-0.6,0.4-1.2,0.7-1.9,0.8c-0.9,0.2-2.1,0.3-3.7,0.3h-2.4V31H56.8z M60.4,16.1v5.1h2
		c1.4,0,2.4-0.1,2.9-0.3c0.5-0.2,0.9-0.5,1.1-0.9c0.3-0.4,0.4-0.9,0.4-1.4c0-0.7-0.2-1.2-0.6-1.6c-0.4-0.4-0.9-0.7-1.5-0.8
		c-0.4-0.1-1.3-0.1-2.6-0.1H60.4z"/>
	<path class="st2" d="M87.8,31h-3.9l-1.6-4.1h-7.2L73.7,31h-3.8l7-17.9h3.8L87.8,31z M81.1,23.9l-2.5-6.6l-2.4,6.6H81.1z"/>
	<path class="st2" d="M92.1,31v-7.5l-6.6-10.4h4.2l4.2,7.1l4.1-7.1h4.2l-6.6,10.4V31H92.1z"/>
</g>
<g class="st1">
	<path class="st2" d="M105.4,31V13.1h6.8c1.2,0,2.1,0.1,2.7,0.2c0.9,0.1,1.6,0.4,2.2,0.8c0.6,0.4,1.1,1,1.4,1.7s0.5,1.6,0.5,2.4
		c0,1.5-0.5,2.8-1.5,3.9c-1,1.1-2.7,1.6-5.2,1.6h-4.6V31H105.4z M107.8,21.6h4.6c1.5,0,2.6-0.3,3.3-0.9c0.6-0.6,1-1.4,1-2.4
		c0-0.7-0.2-1.4-0.6-1.9c-0.4-0.5-0.9-0.9-1.5-1.1c-0.4-0.1-1.1-0.2-2.2-0.2h-4.6V21.6z"/>
	<path class="st2" d="M121.3,22.3c0-3,0.8-5.3,2.4-7c1.6-1.7,3.7-2.5,6.2-2.5c1.7,0,3.1,0.4,4.5,1.2c1.3,0.8,2.3,1.9,3,3.3
		c0.7,1.4,1,3,1,4.8c0,1.8-0.4,3.4-1.1,4.9s-1.8,2.5-3.1,3.3c-1.3,0.7-2.8,1.1-4.3,1.1c-1.7,0-3.2-0.4-4.5-1.2
		c-1.3-0.8-2.3-1.9-3-3.3S121.3,23.9,121.3,22.3z M123.8,22.3c0,2.2,0.6,3.9,1.7,5.1c1.2,1.2,2.6,1.9,4.4,1.9c1.8,0,3.2-0.6,4.4-1.9
		c1.2-1.3,1.7-3,1.7-5.3c0-1.5-0.2-2.7-0.7-3.8c-0.5-1.1-1.2-1.9-2.2-2.5c-0.9-0.6-2-0.9-3.2-0.9c-1.7,0-3.1,0.6-4.3,1.7
		C124.4,17.7,123.8,19.6,123.8,22.3z"/>
	<path class="st2" d="M140.7,25.3l2.2-0.2c0.1,0.9,0.4,1.6,0.7,2.2c0.4,0.6,1,1,1.8,1.4c0.8,0.4,1.7,0.5,2.7,0.5
		c0.9,0,1.7-0.1,2.4-0.4s1.2-0.6,1.5-1.1s0.5-1,0.5-1.5c0-0.6-0.2-1.1-0.5-1.5c-0.3-0.4-0.9-0.8-1.6-1.1c-0.5-0.2-1.5-0.5-3.2-0.9
		c-1.6-0.4-2.8-0.8-3.5-1.1c-0.9-0.4-1.5-1-1.9-1.7c-0.4-0.7-0.6-1.4-0.6-2.2c0-0.9,0.3-1.7,0.8-2.5s1.3-1.4,2.2-1.8
		c1-0.4,2.1-0.6,3.3-0.6c1.3,0,2.5,0.2,3.5,0.6c1,0.4,1.8,1.1,2.3,1.9s0.8,1.8,0.9,2.8l-2.3,0.2c-0.1-1.1-0.5-2-1.2-2.6
		c-0.7-0.6-1.7-0.9-3.1-0.9c-1.4,0-2.5,0.3-3.1,0.8c-0.7,0.5-1,1.2-1,1.9c0,0.6,0.2,1.2,0.7,1.6c0.5,0.4,1.6,0.8,3.6,1.3
		c1.9,0.4,3.2,0.8,4,1.1c1,0.5,1.8,1.1,2.3,1.8c0.5,0.7,0.7,1.6,0.7,2.5c0,1-0.3,1.8-0.8,2.7c-0.5,0.8-1.3,1.5-2.3,2
		s-2.2,0.7-3.4,0.7c-1.6,0-3-0.2-4.1-0.7c-1.1-0.5-2-1.2-2.6-2.1C141.1,27.5,140.7,26.4,140.7,25.3z"/>
	<path class="st2" d="M162.7,31V15.2h-5.9v-2.1H171v2.1h-5.9V31H162.7z"/>
</g>
</svg>
