<?xml version="1.0" encoding="UTF-8"?>
<svg width="500px" height="500px" viewBox="0 0 500 500" version="1.1" xmlns="http://www.w3.org/2000/svg" xmlns:xlink="http://www.w3.org/1999/xlink">
    <!-- Generator: Sketch 44.1 (41455) - http://www.bohemiancoding.com/sketch -->
    <title>Group 24</title>
    <desc>Created with Sketch.</desc>
    <defs></defs>
    <g id="Main" stroke="none" stroke-width="1" fill="none" fill-rule="evenodd">
        <g id="Group-24">
            <rect id="Rectangle-7-Copy" x="0" y="0" width="500" height="500"></rect>
            <ellipse id="Oval-2-Copy-11" fill="#FFFFFF" opacity="0.247282609" transform="translate(233.447024, 50.392709) rotate(-509.000000) translate(-233.447024, -50.392709) " cx="233.447024" cy="50.3927088" rx="4.02912704" ry="3.87037037"></ellipse>
            <ellipse id="Oval-2-Copy-12" fill="#FFFFFF" opacity="0.517493207" transform="translate(116.447024, 425.392709) rotate(-509.000000) translate(-116.447024, -425.392709) " cx="116.447024" cy="425.392709" rx="4.02912704" ry="3.87037037"></ellipse>
            <ellipse id="Oval-2-Copy-13" fill="#FFFFFF" opacity="0.247282609" transform="translate(154.447024, 246.392709) rotate(-509.000000) translate(-154.447024, -246.392709) " cx="154.447024" cy="246.392709" rx="4.02912704" ry="3.87037037"></ellipse>
            <ellipse id="Oval-2-Copy-17" fill="#FFFFFF" opacity="0.517493207" transform="translate(389.447024, 147.392709) rotate(-509.000000) translate(-389.447024, -147.392709) " cx="389.447024" cy="147.392709" rx="4.02912704" ry="3.87037037"></ellipse>
            <ellipse id="Oval-2-Copy-14" fill="#FFFFFF" opacity="0.517493207" transform="translate(282.447024, 477.392709) rotate(-509.000000) translate(-282.447024, -477.392709) " cx="282.447024" cy="477.392709" rx="4.02912704" ry="3.87037037"></ellipse>
            <ellipse id="Oval-2-Copy-15" fill="#FFFFFF" opacity="0.247282609" transform="translate(394.447024, 303.392709) rotate(-509.000000) translate(-394.447024, -303.392709) " cx="394.447024" cy="303.392709" rx="4.02912704" ry="3.87037037"></ellipse>
            <ellipse id="Oval-2-Copy-16" fill="#FFFFFF" opacity="0.517493207" transform="translate(19.447024, 158.392709) rotate(-509.000000) translate(-19.447024, -158.392709) " cx="19.4470241" cy="158.392709" rx="4.02912704" ry="3.87037037"></ellipse>
        </g>
    </g>
</svg>