<?xml version="1.0" encoding="utf-8"?>
<!-- Generator: Adobe Illustrator 21.0.0, SVG Export Plug-In . SVG Version: 6.00 Build 0)  -->
<svg version="1.1" id="Слой_1" xmlns="http://www.w3.org/2000/svg" xmlns:xlink="http://www.w3.org/1999/xlink" x="0px" y="0px"
	 viewBox="0 0 1920 1300" style="enable-background:new 0 0 1920 1300;" xml:space="preserve">
<style type="text/css">
	.st0{fill:none;}
	.st1{fill:#FFFFFF;}
</style>
<title>Group 26</title>
<desc>Created with Sketch.</desc>
<g id="Main">
	<g id="Group-26">
		<rect id="Rectangle-8" class="st0" width="1920" height="1300"/>
		
			<ellipse id="Oval-2-Copy-11" transform="matrix(0.515 -0.8572 0.8572 0.515 -628.0275 886.0817)" class="st1" cx="469.1" cy="998.1" rx="1.5" ry="1.5"/>
		
			<ellipse id="Oval-2-Copy-28" transform="matrix(0.515 -0.8572 0.8572 0.515 -665.409 1258.0103)" class="st1" cx="779.1" cy="1217.1" rx="1.5" ry="1.5"/>
		
			<ellipse id="Oval-2-Copy-29" transform="matrix(0.515 -0.8572 0.8572 0.515 -362.2805 1415.7882)" class="st1" cx="1070.1" cy="1028.1" rx="1.5" ry="1.5"/>
		
			<ellipse id="Oval-2-Copy-30" transform="matrix(0.515 -0.8572 0.8572 0.515 -261.5156 2047.8894)" class="st1" cx="1679.1" cy="1255.1" rx="1.5" ry="1.5"/>
		
			<ellipse id="Oval-2-Copy-27" transform="matrix(0.515 -0.8572 0.8572 0.515 -1008.1194 672.2716)" class="st1" cx="90.1" cy="1227.1" rx="1.5" ry="1.5"/>
		
			<ellipse id="Oval-2-Copy-18" transform="matrix(0.515 -0.8572 0.8572 0.515 -217.1117 1090.3733)" class="st1" cx="855.1" cy="737.1" rx="1.5" ry="1.5"/>
		
			<ellipse id="Oval-2-Copy-20" transform="matrix(0.515 -0.8572 0.8572 0.515 -119.3243 847.2113)" class="st1" cx="689.1" cy="529.1" rx="1.5" ry="1.5"/>
		
			<ellipse id="Oval-2-Copy-21" transform="matrix(0.515 -0.8572 0.8572 0.515 -263.379 454.5959)" class="st1" cx="270.1" cy="460.1" rx="1.5" ry="1.5"/>
		
			<ellipse id="Oval-2-Copy-26" transform="matrix(0.515 -0.8572 0.8572 0.515 -469.5808 312.1354)" class="st1" cx="41.1" cy="571.1" rx="1.5" ry="1.5"/>
		
			<ellipse id="Oval-2-Copy-22" transform="matrix(0.515 -0.8572 0.8572 0.515 97.4798 938.4116)" class="st1" cx="878.1" cy="383.1" rx="1.5" ry="1.5"/>
		
			<ellipse id="Oval-2-Copy-23" transform="matrix(0.515 -0.8572 0.8572 0.515 328.6992 915.0906)" class="st1" cx="973.1" cy="167.1" rx="1.5" ry="1.5"/>
		
			<ellipse id="Oval-2-Copy-24" transform="matrix(0.515 -0.8572 0.8572 0.515 146.7269 505.4555)" class="st1" cx="520.1" cy="123.1" rx="1.5" ry="1.5"/>
		
			<ellipse id="Oval-2-Copy-25" transform="matrix(0.515 -0.8572 0.8572 0.515 -73.8191 203.6418)" class="st1" cx="143.1" cy="167.1" rx="1.5" ry="1.5"/>
		
			<ellipse id="Oval-2-Copy-19" transform="matrix(0.515 -0.8572 0.8572 0.515 167.3724 1819.9462)" class="st1" cx="1692.1" cy="762.1" rx="1.5" ry="1.5"/>
		
			<ellipse id="Oval-2-Copy-32" transform="matrix(0.515 -0.8572 0.8572 0.515 87.6173 1330.98)" class="st1" cx="1220.1" cy="588.1" rx="1.5" ry="1.5"/>
		
			<ellipse id="Oval-2-Copy-33" transform="matrix(0.515 -0.8572 0.8572 0.515 553.806 1778.9653)" class="st1" cx="1849.1" cy="400.1" rx="1.5" ry="1.5"/>
		
			<ellipse id="Oval-2-Copy-34" transform="matrix(0.515 -0.8572 0.8572 0.515 519.309 1475.9922)" class="st1" cx="1564.1" cy="279.1" rx="1.5" ry="1.5"/>
		
			<ellipse id="Oval-2-Copy-35" transform="matrix(0.515 -0.8572 0.8572 0.515 330.949 1389.0671)" class="st1" cx="1393.1" cy="402.1" rx="1.5" ry="1.5"/>
		
			<ellipse id="Oval-2-Copy-36" transform="matrix(0.515 -0.8572 0.8572 0.515 802.8377 1475.1274)" class="st1" cx="1705.1" cy="28.1" rx="1.5" ry="1.5"/>
		
			<ellipse id="Oval-2-Copy-31" transform="matrix(0.515 -0.8572 0.8572 0.515 17.2193 2082.5518)" class="st1" cx="1849.1" cy="1026.1" rx="1.5" ry="1.5"/>
		
			<ellipse id="Oval-2-Copy-11_1_" transform="matrix(0.515 -0.8572 0.8572 0.515 -736.3536 622.6161)" class="st1" cx="182.1" cy="962.1" rx="1.5" ry="1.5"/>
	</g>
</g>
</svg>
